<?xml version="1.0" standalone="no"?>
<!DOCTYPE svg PUBLIC "-//W3C//DTD SVG 20010904//EN"
 "http://www.w3.org/TR/2001/REC-SVG-20010904/DTD/svg10.dtd">
<svg version="1.0" xmlns="http://www.w3.org/2000/svg"
 width="394.000000pt" height="394.000000pt" viewBox="0 0 394.000000 394.000000"
 preserveAspectRatio="xMidYMid meet">
<metadata>
Created by potrace 1.11, written by Peter Selinger 2001-2013
</metadata>
<g transform="translate(0.000000,394.000000) scale(0.100000,-0.100000)"
fill="#000000" stroke="none">
<path d="M46 2629 c-16 -5 -33 -14 -37 -21 -5 -7 -9 -293 -9 -635 0 -617 0
-623 21 -644 20 -20 28 -20 277 -17 224 4 263 7 302 23 192 80 313 249 304
422 -4 74 -19 122 -55 176 -34 51 -66 78 -135 111 l-45 22 21 24 c12 13 35 54
52 90 27 56 32 76 31 145 0 44 -3 89 -6 100 -30 105 -132 182 -267 203 -76 11
-414 12 -454 1z m407 -134 c83 -10 147 -47 174 -98 23 -44 20 -118 -7 -170
-61 -118 -150 -153 -380 -152 l-105 0 0 210 c0 116 3 212 6 215 10 7 251 3
312 -5z m152 -580 c65 -19 117 -61 131 -107 29 -92 -9 -213 -83 -273 -42 -33
-131 -71 -189 -81 -44 -8 -303 -13 -320 -7 -9 3 -12 72 -12 241 0 130 2 240 5
244 2 4 96 5 208 3 149 -3 221 -8 260 -20z"/>
<path d="M1482 2632 c-7 -5 -54 -102 -106 -218 -51 -115 -105 -235 -119 -267
-15 -32 -27 -59 -27 -62 0 -2 -13 -32 -29 -67 -16 -35 -39 -85 -51 -113 -13
-27 -35 -77 -50 -110 -15 -33 -49 -109 -75 -170 -26 -60 -61 -139 -77 -175
-35 -75 -31 -106 15 -128 58 -28 67 -17 151 175 43 98 86 194 95 213 l16 35
278 3 c171 1 277 -1 277 -7 0 -6 17 -47 38 -93 21 -46 63 -138 92 -206 59
-133 73 -146 127 -120 62 30 55 53 -165 539 -11 24 -93 206 -182 404 -88 197
-166 363 -173 367 -15 10 -19 10 -35 0z m118 -492 c50 -113 95 -213 101 -223
6 -11 8 -22 5 -25 -8 -7 -416 -9 -416 -2 0 17 206 467 212 462 4 -4 48 -99 98
-212z"/>
<path d="M2165 2616 l-22 -22 -2 -626 -2 -627 26 -17 c30 -20 89 -12 101 14 4
9 8 124 8 254 1 130 4 239 7 242 3 4 15 -2 26 -11 17 -15 264 -248 363 -343
15 -14 60 -58 102 -97 83 -80 105 -87 143 -48 53 52 65 37 -355 434 l-75 71
35 0 c89 1 211 54 285 125 93 90 139 204 133 330 -7 131 -65 228 -172 288 -77
43 -127 50 -360 52 -213 2 -220 1 -241 -19z m463 -132 c221 -70 211 -378 -16
-482 -49 -22 -69 -25 -189 -27 -86 -1 -136 2 -141 9 -4 6 -7 124 -7 261 0 189
3 251 12 255 7 3 73 4 148 3 99 -1 151 -6 193 -19z"/>
<path d="M3049 2619 c-20 -20 -19 -83 1 -103 8 -8 108 -11 340 -12 182 0 332
-3 335 -6 3 -3 -142 -239 -323 -524 -180 -286 -338 -536 -351 -556 -28 -47
-21 -75 25 -94 27 -11 111 -14 428 -14 l395 0 15 22 c21 30 20 74 -1 96 -16
15 -47 17 -350 17 -183 0 -333 1 -333 3 0 2 169 271 534 851 91 146 166 273
166 283 0 9 -12 26 -27 35 -25 16 -62 18 -431 19 -376 1 -406 0 -423 -17z"/>
</g>
</svg>
